<?xml version="1.0" encoding="UTF-8" standalone="no"?>
<!DOCTYPE svg PUBLIC "-//W3C//DTD SVG 1.1//EN" "http://www.w3.org/Graphics/SVG/1.1/DTD/svg11.dtd">
<svg width="100%" height="100%" viewBox="0 0 200 200" version="1.1" xmlns="http://www.w3.org/2000/svg" xmlns:xlink="http://www.w3.org/1999/xlink" xml:space="preserve" xmlns:serif="http://www.serif.com/" style="fill-rule:evenodd;clip-rule:evenodd;">
    <path d="M192,33L192,167C192,180.798 180.798,192 167,192L33,192C19.202,192 8,180.798 8,167L8,33C8,19.202 19.202,8 33,8L167,8C180.798,8 192,19.202 192,33Z" style="fill:rgb(241,246,253);stroke:rgb(212,221,232);stroke-width:2px;"/>
    <g>
        <g transform="matrix(0.981601,0,0,0.981601,1.04874,3.18302)">
            <path d="M143,40.244L143,159.756C143,167.066 137.066,173 129.756,173L70.244,173C62.934,173 57,167.066 57,159.756L57,40.244C57,32.934 62.934,27 70.244,27L129.756,27C137.066,27 143,32.934 143,40.244Z" style="fill:white;stroke:rgb(22,68,127);stroke-width:4.5px;stroke-linecap:round;stroke-linejoin:round;"/>
        </g>
        <g transform="matrix(0.981601,0,0,0.981601,1.04874,3.18302)">
            <path d="M86,42L114,42M92,159L108,159" style="fill:none;fill-rule:nonzero;stroke:rgb(91,139,201);stroke-width:4.5px;stroke-linecap:round;stroke-linejoin:round;"/>
        </g>
        <g transform="matrix(0.981601,0,0,0.981601,1.04874,3.18302)">
            <path d="M130,64.094L130,139.906C130,142.718 127.718,145 124.906,145L75.094,145C72.282,145 70,142.718 70,139.906L70,64.094C70,61.282 72.282,59 75.094,59L124.906,59C127.718,59 130,61.282 130,64.094Z" style="fill:rgb(227,236,249);stroke:rgb(22,68,127);stroke-width:4.5px;stroke-linecap:round;stroke-linejoin:round;"/>
        </g>
        <g transform="matrix(0.981601,0,0,0.981601,1.04874,3.18302)">
            <path d="M77,59L77,145" style="fill:none;fill-rule:nonzero;stroke:rgb(91,139,201);stroke-width:2.5px;stroke-linecap:round;stroke-linejoin:round;"/>
        </g>
        <g transform="matrix(0.981601,0,0,0.981601,1.04874,3.18302)">
            <circle cx="102" cy="102" r="18" style="fill:white;stroke:rgb(22,68,127);stroke-width:4.5px;stroke-linecap:round;stroke-linejoin:round;"/>
        </g>
        <g transform="matrix(0.981601,0,0,0.981601,1.04874,3.18302)">
            <path d="M84,102L120,102M102,84C94,93 94,111 102,120M102,84C110,93 110,111 102,120" style="fill:none;fill-rule:nonzero;stroke:rgb(22,68,127);stroke-width:2.5px;stroke-linecap:round;stroke-linejoin:round;"/>
        </g>
    </g>
    <g transform="matrix(0.777937,0,0,0.844089,26.2671,-22.5467)">
        <path d="M143,55C151,56 157,62 158,70M143,44C157,45 168,56 169,70" style="fill:none;fill-rule:nonzero;stroke:rgb(192,127,26);stroke-width:4px;stroke-linecap:round;stroke-linejoin:round;"/>
    </g>
</svg>
