<svg xmlns="http://www.w3.org/2000/svg" viewBox="0 0 200 200" role="img" aria-labelledby="title desc">
  <title id="title">EU personal identity data</title>
  <desc id="desc">An identity card with a circle of 12 gold dots</desc>
  <rect x="8" y="8" width="184" height="184" rx="25" fill="#f1f6fd" stroke="#d4dde8" stroke-width="2"/>
  <g fill="none" stroke="#16447f" stroke-width="4.5" stroke-linecap="round" stroke-linejoin="round">
      <rect x="28" y="49" width="144" height="102" rx="11" fill="#fff"/>
      <rect x="110" y="64" width="45" height="31" rx="3" fill="#16447f" stroke="none"/>
      <g fill="#c07f1a" stroke="none">
        <circle cx="132.50" cy="68.30" r="1.55"/>
        <circle cx="138.10" cy="69.80" r="1.55"/>
        <circle cx="142.20" cy="73.90" r="1.55"/>
        <circle cx="143.70" cy="79.50" r="1.55"/>
        <circle cx="142.20" cy="85.10" r="1.55"/>
        <circle cx="138.10" cy="89.20" r="1.55"/>
        <circle cx="132.50" cy="90.70" r="1.55"/>
        <circle cx="126.90" cy="89.20" r="1.55"/>
        <circle cx="122.80" cy="85.10" r="1.55"/>
        <circle cx="121.30" cy="79.50" r="1.55"/>
        <circle cx="122.80" cy="73.90" r="1.55"/>
        <circle cx="126.90" cy="69.80" r="1.55"/>
      </g>
      <circle cx="65" cy="99" r="13" fill="#e3ecf9"/>
      <path d="M44 130c2-13 10-20 21-20s19 7 21 20" fill="#e3ecf9"/>
      <path d="M105 113h48M105 129h36"/>
    
  </g>
</svg>
